<?xml version="1.0" standalone="no"?>
<!DOCTYPE svg PUBLIC "-//W3C//DTD SVG 20010904//EN"
 "http://www.w3.org/TR/2001/REC-SVG-20010904/DTD/svg10.dtd">
<svg version="1.0" xmlns="http://www.w3.org/2000/svg"
 width="700.000000pt" height="700.000000pt" viewBox="0 0 700.000000 700.000000"
 preserveAspectRatio="xMidYMid meet">
<metadata>
Created by potrace 1.11, written by Peter Selinger 2001-2013
</metadata>
<g transform="translate(0.000000,700.000000) scale(0.100000,-0.100000)"
fill="#000000" stroke="none">
<path d="M1798 6995 c-4 -4 2 -17 14 -29 11 -11 54 -66 95 -121 137 -182 259
-407 361 -665 50 -126 145 -438 167 -548 2 -9 11 -48 20 -87 9 -38 17 -81 19
-95 2 -14 13 -79 24 -145 12 -66 23 -139 26 -162 22 -169 26 -201 32 -268 3
-33 7 -82 9 -110 2 -27 7 -97 10 -155 4 -58 8 -112 10 -120 2 -8 7 -42 11 -74
3 -33 8 -67 9 -75 2 -9 4 -38 4 -66 l1 -50 75 110 c137 201 158 229 291 380
127 144 346 351 438 414 12 8 23 17 26 20 22 25 230 165 332 224 50 29 199
104 263 133 22 9 41 18 43 19 4 3 -54 109 -95 173 -18 29 -33 56 -33 61 0 5
-3 11 -7 13 -5 2 -21 23 -37 48 -130 201 -366 465 -551 617 -104 86 -194 153
-205 153 -5 0 -10 4 -10 8 0 5 -10 14 -22 21 -13 6 -32 17 -43 24 -383 234
-714 340 -1110 354 -88 3 -163 2 -167 -2z"/>
<path d="M880 6636 c-346 -261 -609 -670 -741 -1156 -12 -41 -23 -86 -25 -100
-3 -14 -7 -33 -10 -42 -3 -10 -7 -30 -10 -45 -2 -16 -6 -37 -9 -49 -2 -11 -7
-45 -11 -75 -3 -30 -8 -56 -10 -59 -9 -16 -19 -227 -19 -390 1 -218 10 -351
35 -485 6 -27 12 -68 16 -90 3 -22 7 -48 10 -57 3 -10 7 -28 10 -40 10 -55 14
-73 39 -165 228 -843 790 -1565 1500 -1925 134 -68 356 -156 409 -162 9 -1 9
62 0 108 -8 41 -17 253 -17 381 0 207 14 376 46 558 l14 77 -43 153 c-40 138
-112 433 -119 482 -1 11 -10 58 -19 105 -19 101 -26 145 -31 185 -2 17 -7 48
-10 70 -11 71 -14 89 -20 155 -3 36 -8 76 -10 90 -2 14 -7 61 -10 105 -3 44
-7 107 -10 140 -2 33 -7 107 -10 165 -29 523 -116 966 -262 1330 -116 290
-268 525 -442 684 -19 17 -39 36 -45 41 -30 28 -95 75 -102 75 -5 0 -47 -29
-94 -64z"/>
<path d="M4835 5238 c-51 -7 -177 -27 -210 -34 -96 -20 -301 -89 -401 -134
-35 -17 -66 -30 -68 -30 -2 0 -50 -25 -107 -56 -102 -55 -293 -181 -355 -233
-17 -14 -51 -42 -75 -61 -59 -47 -294 -281 -356 -355 -242 -288 -459 -675
-587 -1045 -23 -67 -72 -230 -81 -270 -27 -118 -28 -121 -50 -250 -20 -116
-30 -193 -40 -325 -5 -68 -5 -337 0 -405 5 -67 16 -168 21 -195 2 -11 6 -36 8
-55 3 -19 10 -60 16 -90 6 -30 14 -68 17 -85 19 -108 111 -378 179 -521 124
-265 337 -542 533 -697 36 -28 72 -57 78 -63 7 -7 29 -22 48 -34 l36 -22 27
29 c383 407 642 900 791 1501 26 105 42 178 45 207 1 9 5 27 22 119 2 11 8 56
14 100 6 45 13 92 15 106 2 14 7 59 10 100 4 41 9 93 10 115 2 22 7 90 10 150
9 177 18 293 30 395 3 25 8 70 11 100 14 123 22 184 34 260 5 30 12 71 15 90
3 19 15 80 26 135 11 55 23 111 25 125 25 128 114 430 172 585 108 289 273
584 434 776 32 38 58 71 58 75 0 8 -283 2 -355 -8z"/>
<path d="M5980 4943 c-19 -15 -51 -42 -70 -60 -19 -17 -44 -40 -55 -50 -141
-127 -329 -424 -425 -673 -62 -161 -135 -408 -155 -523 -4 -18 -10 -50 -15
-72 -5 -22 -11 -53 -14 -70 -5 -34 -19 -117 -21 -125 -1 -3 -5 -34 -9 -70 -4
-36 -9 -78 -11 -95 -14 -112 -30 -312 -40 -500 -6 -107 -12 -193 -20 -265 -2
-25 -7 -74 -11 -110 -3 -36 -7 -72 -9 -80 -2 -9 -6 -43 -10 -75 -4 -33 -9 -69
-11 -80 -3 -11 -7 -36 -10 -55 -27 -173 -76 -395 -138 -620 -20 -74 -100 -311
-113 -335 -6 -11 -12 -24 -13 -30 -16 -72 -171 -400 -267 -565 -72 -123 -176
-278 -259 -385 -36 -47 -64 -86 -62 -86 15 -6 73 -10 188 -13 124 -3 286 13
395 39 239 57 456 147 694 285 181 106 464 345 631 535 327 370 574 832 699
1305 11 41 22 86 25 100 2 14 9 45 15 70 5 25 13 61 16 80 3 19 8 42 10 50 2
8 7 42 11 75 3 33 8 69 10 80 12 56 19 211 18 395 0 213 -5 293 -29 435 -3 17
-9 57 -15 90 -5 33 -21 105 -35 160 -110 425 -295 763 -568 1037 -88 89 -261
228 -282 228 -5 0 -26 -12 -45 -27z"/>
</g>
</svg>
